o COL_0
v 19.9994 75 -20.0003
v -20.0006 75 -20.0003
v -20.0006 75 19.9997
v 19.9994 75 19.9997
v 19.9994 75 19.99983
v 19.9994 0.0002822876 -20.0003
v 19.9994 0 19.9997
v 19.9994 0 -20.00059
v -20.00073 75 19.9997
v 19.9994 0.0002822876 19.9997
v -20.0006 0 19.9997
v 19.99969 0 19.9997
v -20.0006 75 -20.00043
v -20.0006 0.0002822876 19.9997
v -20.0006 0 -20.0003
v -20.0006 0 19.99999
v -20.0006 0.0005340576 -20.0003
v 19.9994 0 -20.0003
v -20.00089 0 -20.0003
vn 0 1 0
vn 1 0 0
vn 0 0 1
vn -1 0 0
vn 0 0 -1
usemtl COL_0
f 1//1 2//1 3//1
f 1//1 3//1 4//1
f 1//2 5//2 6//2
f 4//2 7//2 8//2
f 4//3 9//3 10//3
f 3//3 11//3 12//3
f 3//4 13//4 14//4
f 2//4 15//4 16//4
f 1//5 17//5 2//5
f 1//5 18//5 19//5
