# Blender 3.4.1
# www.blender.org
mtllib colStake.mtl
o COL_0
v -0.500000 1.500000 0.500000
v 0.500000 1.500000 0.500000
v 0.500000 1.500000 -0.500000
v -0.500000 1.500000 -0.500000
vn -0.0000 1.0000 -0.0000
s 1
usemtl COL_0
f 1//1 2//1 3//1
f 1//1 3//1 4//1
o COL_1
v 0.500000 1.500000 -0.500000
v 0.500000 -0.341116 -0.500000
v -0.499996 -0.341116 -0.500000
v -0.500000 -0.341123 -0.500000
v -0.500000 1.500000 -0.500000
v -0.500000 1.500000 0.500000
v -0.500000 -0.341116 -0.499996
v -0.500000 -0.341116 0.500000
v 0.499996 -0.341116 0.500000
v 0.500000 -0.341124 0.500000
v 0.500000 1.500000 0.500000
v 0.500000 -0.341116 0.499996
v -0.500000 -0.341116 -0.500000
v 0.499995 -0.341116 -0.500000
v -0.000002 -0.341116 -0.000002
v -0.500000 -0.341116 0.499995
v 0.500000 -0.341116 0.500000
v -0.499995 -0.341116 0.500000
v 0.000002 -0.341116 0.000002
v 0.500000 -0.341116 -0.499996
vn -0.0000 -0.0000 -1.0000
vn -1.0000 -0.0000 -0.0000
vn -0.0000 -0.0000 1.0000
vn 1.0000 -0.0000 -0.0000
vn -0.0000 -1.0000 -0.0000
s 1
usemtl COL_1
f 5//2 6//2 7//2
f 5//2 8//2 9//2
f 10//3 9//3 8//3
f 10//3 11//3 12//3
f 10//4 12//4 13//4
f 10//4 14//4 15//4
f 5//5 15//5 14//5
f 5//5 16//5 6//5
f 17//6 18//6 19//6
f 17//6 19//6 20//6
f 21//6 22//6 23//6
f 21//6 23//6 24//6
